<?xml version="1.0" encoding="UTF-8" standalone="no"?>
<!-- Created with Inkscape (http://www.inkscape.org/) -->

<svg
   width="191.59935mm"
   height="196.13589mm"
   viewBox="0 0 191.59935 196.13589"
   version="1.1"
   id="svg5"
   sodipodi:docname="oscillator.svg"
   inkscape:version="1.1.2 (0a00cf5339, 2022-02-04)"
   xmlns:inkscape="http://www.inkscape.org/namespaces/inkscape"
   xmlns:sodipodi="http://sodipodi.sourceforge.net/DTD/sodipodi-0.dtd"
   xmlns:xlink="http://www.w3.org/1999/xlink"
   xmlns="http://www.w3.org/2000/svg"
   xmlns:svg="http://www.w3.org/2000/svg">
  <sodipodi:namedview
     id="namedview7"
     pagecolor="#ffffff"
     bordercolor="#666666"
     borderopacity="1.0"
     inkscape:pageshadow="2"
     inkscape:pageopacity="0.0"
     inkscape:pagecheckerboard="0"
     inkscape:document-units="mm"
     showgrid="false"
     inkscape:zoom="0.80087682"
     inkscape:cx="217.88619"
     inkscape:cy="420.7888"
     inkscape:window-width="1920"
     inkscape:window-height="1170"
     inkscape:window-x="1920"
     inkscape:window-y="30"
     inkscape:window-maximized="1"
     inkscape:current-layer="layer1"
     fit-margin-top="0"
     fit-margin-left="0"
     fit-margin-right="0"
     fit-margin-bottom="0" />
  <defs
     id="defs2">
    <inkscape:path-effect
       effect="fillet_chamfer"
       id="path-effect13591"
       is_visible="true"
       lpeversion="1"
       satellites_param="F,0,0,1,0,14.816667,0,1 @ F,0,0,1,0,14.816667,0,1 @ F,0,0,1,0,14.816667,0,1 @ F,0,0,1,0,14.816667,0,1"
       unit="px"
       method="auto"
       mode="F"
       radius="56"
       chamfer_steps="1"
       flexible="false"
       use_knot_distance="true"
       apply_no_radius="true"
       apply_with_radius="true"
       only_selected="false"
       hide_knots="false" />
    <inkscape:path-effect
       effect="bspline"
       id="path-effect12106"
       is_visible="true"
       lpeversion="1"
       weight="33.333333"
       steps="2"
       helper_size="0"
       apply_no_weight="true"
       apply_with_weight="true"
       only_selected="false" />
    <marker
       style="overflow:visible"
       id="Arrow2Lend"
       refX="0"
       refY="0"
       orient="auto"
       inkscape:stockid="Arrow2Lend"
       inkscape:isstock="true">
      <path
         transform="matrix(-1.1,0,0,-1.1,-1.1,0)"
         d="M 8.7185878,4.0337352 -2.2072895,0.01601326 8.7185884,-4.0017078 c -1.7454984,2.3720609 -1.7354408,5.6174519 -6e-7,8.035443 z"
         style="fill:context-stroke;fill-rule:evenodd;stroke:context-stroke;stroke-width:0.625;stroke-linejoin:round"
         id="path10876" />
    </marker>
    <marker
       style="overflow:visible"
       id="Arrow2Lstart"
       refX="0"
       refY="0"
       orient="auto"
       inkscape:stockid="Arrow2Lstart"
       inkscape:isstock="true">
      <path
         transform="matrix(1.1,0,0,1.1,1.1,0)"
         d="M 8.7185878,4.0337352 -2.2072895,0.01601326 8.7185884,-4.0017078 c -1.7454984,2.3720609 -1.7354408,5.6174519 -6e-7,8.035443 z"
         style="fill:context-stroke;fill-rule:evenodd;stroke:context-stroke;stroke-width:0.625;stroke-linejoin:round"
         id="path10873" />
    </marker>
    <inkscape:path-effect
       effect="bspline"
       id="path-effect10853"
       is_visible="true"
       lpeversion="1"
       weight="33.333333"
       steps="2"
       helper_size="0"
       apply_no_weight="true"
       apply_with_weight="true"
       only_selected="false" />
    <inkscape:path-effect
       effect="bspline"
       id="path-effect10472"
       is_visible="true"
       lpeversion="1"
       weight="33.333333"
       steps="2"
       helper_size="0"
       apply_no_weight="true"
       apply_with_weight="true"
       only_selected="false" />
    <inkscape:path-effect
       effect="spiro"
       id="path-effect10468"
       is_visible="true"
       lpeversion="1" />
    <inkscape:path-effect
       effect="spiro"
       id="path-effect7533"
       is_visible="true"
       lpeversion="1" />
    <inkscape:path-effect
       effect="spiro"
       id="path-effect4746"
       is_visible="true"
       lpeversion="1" />
    <inkscape:path-effect
       effect="spiro"
       id="path-effect4532"
       is_visible="true"
       lpeversion="1" />
    <inkscape:path-effect
       effect="spiro"
       id="path-effect4532-7"
       is_visible="true"
       lpeversion="1" />
    <inkscape:path-effect
       effect="spiro"
       id="path-effect4532-7-3"
       is_visible="true"
       lpeversion="1" />
    <inkscape:path-effect
       effect="spiro"
       id="path-effect4532-9"
       is_visible="true"
       lpeversion="1" />
    <inkscape:path-effect
       effect="spiro"
       id="path-effect4532-9-2"
       is_visible="true"
       lpeversion="1" />
    <inkscape:path-effect
       effect="spiro"
       id="path-effect4532-9-0"
       is_visible="true"
       lpeversion="1" />
    <inkscape:path-effect
       effect="spiro"
       id="path-effect4532-9-06"
       is_visible="true"
       lpeversion="1" />
    <inkscape:path-effect
       effect="spiro"
       id="path-effect4532-6"
       is_visible="true"
       lpeversion="1" />
    <inkscape:path-effect
       effect="spiro"
       id="path-effect4532-6-8"
       is_visible="true"
       lpeversion="1" />
    <inkscape:path-effect
       effect="spiro"
       id="path-effect4532-6-8-9"
       is_visible="true"
       lpeversion="1" />
    <inkscape:path-effect
       effect="spiro"
       id="path-effect7533-0"
       is_visible="true"
       lpeversion="1" />
    <g
       id="g2543">
      <symbol
         overflow="visible"
         id="symbol8119">
        <path
           style="stroke:none"
           d=""
           id="path1668" />
      </symbol>
      <symbol
         overflow="visible"
         id="symbol5445">
        <path
           style="stroke:none"
           d="m 4.359375,-6.671875 c 0,-0.03125 0.03125,-0.140625 0.03125,-0.140625 0,-0.015625 0,-0.109375 -0.125,-0.109375 -0.09375,0 -0.109375,0.03125 -0.15625,0.203125 L 3.53125,-4.421875 c -1.578125,0.0625 -3.046875,1.375 -3.046875,2.734375 0,0.953125 0.703125,1.734375 1.921875,1.8125 C 2.328125,0.421875 2.25,0.75 2.171875,1.0625 c -0.125,0.46875 -0.21875,0.84375 -0.21875,0.875 0,0.09375 0.078125,0.109375 0.125,0.109375 C 2.125,2.046875 2.140625,2.03125 2.171875,2 2.1875,1.984375 2.25,1.75 2.28125,1.609375 L 2.65625,0.125 c 1.609375,-0.0625 3.0625,-1.40625 3.0625,-2.734375 0,-0.796875 -0.53125,-1.703125 -1.921875,-1.8125 z m -1.90625,6.578125 c -0.59375,-0.03125 -1.3125,-0.390625 -1.3125,-1.375 0,-1.203125 0.859375,-2.59375 2.34375,-2.734375 z m 1.28125,-4.109375 c 0.765625,0.046875 1.328125,0.5 1.328125,1.375 0,1.1875 -0.859375,2.609375 -2.34375,2.734375 z m 0,0"
           id="path2026" />
      </symbol>
    </g>
    <g
       id="g7277">
      <symbol
         overflow="visible"
         id="symbol9612">
        <path
           style="stroke:none"
           d=""
           id="path3628" />
      </symbol>
      <symbol
         overflow="visible"
         id="symbol3909">
        <path
           style="stroke:none"
           d="m 0.15625,-0.984375 c -0.015625,0.03125 -0.046875,0.0625 -0.046875,0.09375 0,0.046875 0.0625,0.140625 0.125,0.140625 C 0.28125,-0.75 0.3125,-0.78125 0.59375,-1.0625 0.671875,-1.140625 0.875,-1.328125 0.953125,-1.40625 1.046875,-0.625 1.328125,0.125 2.0625,0.125 c 0.40625,0 0.75,-0.234375 0.953125,-0.390625 C 3.15625,-0.359375 3.625,-0.75 3.625,-0.84375 c 0,-0.03125 -0.03125,-0.125 -0.109375,-0.125 -0.03125,0 -0.046875,0.015625 -0.140625,0.09375 -0.640625,0.625 -1,0.78125 -1.296875,0.78125 -0.4375,0 -0.609375,-0.53125 -0.609375,-1.296875 0,-0.0625 0.03125,-0.515625 0.0625,-0.578125 C 1.546875,-2 1.546875,-2.015625 1.75,-2.21875 2.546875,-3.015625 3.96875,-4.703125 3.96875,-6.25 c 0,-0.171875 0,-0.78125 -0.59375,-0.78125 -0.828125,0 -1.5625,1.640625 -1.65625,1.875 -0.484375,1.09375 -0.796875,2.25 -0.796875,3.4375 z M 1.578125,-2.375 C 1.59375,-2.5 2.03125,-4.703125 2.59375,-5.875 c 0.265625,-0.53125 0.484375,-0.9375 0.796875,-0.9375 0.34375,0 0.34375,0.359375 0.34375,0.515625 0,1.671875 -1.6875,3.421875 -2.15625,3.921875 z m 0,0"
           id="path1133" />
      </symbol>
      <symbol
         overflow="visible"
         id="symbol5883">
        <path
           style="stroke:none"
           d="m 1.53125,-3.046875 c -1.078125,0.71875 -1.296875,1.65625 -1.296875,2.015625 0,0.46875 0.265625,0.75 0.28125,0.78125 0.328125,0.328125 0.40625,0.375 1.15625,0.65625 L 2.875,0.875 C 3.03125,0.9375 3.234375,1 3.234375,1.296875 c 0,0.234375 -0.1875,0.53125 -0.5,0.53125 -0.4375,0 -0.765625,-0.25 -0.875,-0.328125 C 1.796875,1.46875 1.796875,1.453125 1.75,1.453125 c -0.078125,0 -0.09375,0.078125 -0.09375,0.109375 0,0.125 0.53125,0.484375 1.078125,0.484375 0.625,0 1.046875,-0.578125 1.046875,-1.0625 C 3.78125,0.5 3.40625,0.3125 3.296875,0.265625 3.15625,0.21875 2.828125,0.09375 2.6875,0.046875 2.5,-0.046875 2.296875,-0.125 2.078125,-0.1875 l -0.59375,-0.234375 c -0.453125,-0.1875 -0.75,-0.46875 -0.75,-0.890625 0,-0.40625 0.390625,-1.28125 1.234375,-1.703125 C 2.328125,-2.875 2.625,-2.875 2.84375,-2.875 c 0.296875,0 0.921875,0 0.921875,-0.3125 0,-0.25 -0.421875,-0.265625 -0.8125,-0.265625 -0.1875,0 -0.46875,0 -0.84375,0.109375 -0.25,-0.25 -0.296875,-0.578125 -0.296875,-0.765625 0,-0.5625 0.359375,-1.328125 1.109375,-1.703125 0.171875,0.21875 0.40625,0.21875 0.640625,0.21875 0.25,0 0.890625,0 0.890625,-0.3125 0,-0.25 -0.453125,-0.265625 -0.828125,-0.265625 -0.140625,0 -0.375,0 -0.640625,0.046875 C 2.953125,-6.203125 2.9375,-6.28125 2.9375,-6.453125 c 0,-0.140625 0.046875,-0.34375 0.046875,-0.359375 0,-0.078125 -0.046875,-0.140625 -0.109375,-0.140625 -0.1875,0 -0.1875,0.46875 -0.1875,0.5 0,0.1875 0.0625,0.34375 0.078125,0.375 -1.078125,0.3125 -1.75,1.109375 -1.75,1.875 0,0.359375 0.1875,0.78125 0.65625,1.046875 z m 1.625,-2.859375 C 3.3125,-5.953125 3.515625,-5.953125 3.625,-5.953125 c 0.34375,0 0.375,0.015625 0.5625,0.0625 C 4.109375,-5.859375 4,-5.8125 3.5625,-5.8125 c -0.1875,0 -0.296875,0 -0.40625,-0.09375 z M 2.375,-3.1875 c 0.234375,-0.046875 0.453125,-0.046875 0.5625,-0.046875 0.359375,0 0.390625,0 0.578125,0.046875 -0.09375,0.046875 -0.1875,0.09375 -0.640625,0.09375 -0.234375,0 -0.328125,0 -0.5,-0.09375 z m 0,0"
           id="path214" />
      </symbol>
      <symbol
         overflow="visible"
         id="symbol2093">
        <path
           style="stroke:none"
           d=""
           id="path3048" />
      </symbol>
      <symbol
         overflow="visible"
         id="symbol5734">
        <path
           style="stroke:none"
           d="m 4.078125,-2.296875 h 2.78125 C 7,-2.296875 7.1875,-2.296875 7.1875,-2.5 7.1875,-2.6875 7,-2.6875 6.859375,-2.6875 h -2.78125 v -2.796875 c 0,-0.140625 0,-0.328125 -0.203125,-0.328125 -0.203125,0 -0.203125,0.1875 -0.203125,0.328125 V -2.6875 h -2.78125 c -0.140625,0 -0.328125,0 -0.328125,0.1875 0,0.203125 0.1875,0.203125 0.328125,0.203125 h 2.78125 V 0.5 c 0,0.140625 0,0.328125 0.203125,0.328125 0.203125,0 0.203125,-0.1875 0.203125,-0.328125 z m 0,0"
           id="path8155" />
      </symbol>
    </g>
    <g
       id="g9272">
      <symbol
         overflow="visible"
         id="symbol9655">
        <path
           style="stroke:none"
           d=""
           id="path7488" />
      </symbol>
      <symbol
         overflow="visible"
         id="symbol9489">
        <path
           style="stroke:none"
           d="m 0.15625,-0.984375 c -0.015625,0.03125 -0.046875,0.0625 -0.046875,0.09375 0,0.046875 0.0625,0.140625 0.125,0.140625 C 0.28125,-0.75 0.3125,-0.78125 0.59375,-1.0625 0.671875,-1.140625 0.875,-1.328125 0.953125,-1.40625 1.046875,-0.625 1.328125,0.125 2.0625,0.125 c 0.40625,0 0.75,-0.234375 0.953125,-0.390625 C 3.15625,-0.359375 3.625,-0.75 3.625,-0.84375 c 0,-0.03125 -0.03125,-0.125 -0.109375,-0.125 -0.03125,0 -0.046875,0.015625 -0.140625,0.09375 -0.640625,0.625 -1,0.78125 -1.296875,0.78125 -0.4375,0 -0.609375,-0.53125 -0.609375,-1.296875 0,-0.0625 0.03125,-0.515625 0.0625,-0.578125 C 1.546875,-2 1.546875,-2.015625 1.75,-2.21875 2.546875,-3.015625 3.96875,-4.703125 3.96875,-6.25 c 0,-0.171875 0,-0.78125 -0.59375,-0.78125 -0.828125,0 -1.5625,1.640625 -1.65625,1.875 -0.484375,1.09375 -0.796875,2.25 -0.796875,3.4375 z M 1.578125,-2.375 C 1.59375,-2.5 2.03125,-4.703125 2.59375,-5.875 c 0.265625,-0.53125 0.484375,-0.9375 0.796875,-0.9375 0.34375,0 0.34375,0.359375 0.34375,0.515625 0,1.671875 -1.6875,3.421875 -2.15625,3.921875 z m 0,0"
           id="path7893" />
      </symbol>
      <symbol
         overflow="visible"
         id="symbol8545">
        <path
           style="stroke:none"
           d="m 1.53125,-3.046875 c -1.078125,0.71875 -1.296875,1.65625 -1.296875,2.015625 0,0.46875 0.265625,0.75 0.28125,0.78125 0.328125,0.328125 0.40625,0.375 1.15625,0.65625 L 2.875,0.875 C 3.03125,0.9375 3.234375,1 3.234375,1.296875 c 0,0.234375 -0.1875,0.53125 -0.5,0.53125 -0.4375,0 -0.765625,-0.25 -0.875,-0.328125 C 1.796875,1.46875 1.796875,1.453125 1.75,1.453125 c -0.078125,0 -0.09375,0.078125 -0.09375,0.109375 0,0.125 0.53125,0.484375 1.078125,0.484375 0.625,0 1.046875,-0.578125 1.046875,-1.0625 C 3.78125,0.5 3.40625,0.3125 3.296875,0.265625 3.15625,0.21875 2.828125,0.09375 2.6875,0.046875 2.5,-0.046875 2.296875,-0.125 2.078125,-0.1875 l -0.59375,-0.234375 c -0.453125,-0.1875 -0.75,-0.46875 -0.75,-0.890625 0,-0.40625 0.390625,-1.28125 1.234375,-1.703125 C 2.328125,-2.875 2.625,-2.875 2.84375,-2.875 c 0.296875,0 0.921875,0 0.921875,-0.3125 0,-0.25 -0.421875,-0.265625 -0.8125,-0.265625 -0.1875,0 -0.46875,0 -0.84375,0.109375 -0.25,-0.25 -0.296875,-0.578125 -0.296875,-0.765625 0,-0.5625 0.359375,-1.328125 1.109375,-1.703125 0.171875,0.21875 0.40625,0.21875 0.640625,0.21875 0.25,0 0.890625,0 0.890625,-0.3125 0,-0.25 -0.453125,-0.265625 -0.828125,-0.265625 -0.140625,0 -0.375,0 -0.640625,0.046875 C 2.953125,-6.203125 2.9375,-6.28125 2.9375,-6.453125 c 0,-0.140625 0.046875,-0.34375 0.046875,-0.359375 0,-0.078125 -0.046875,-0.140625 -0.109375,-0.140625 -0.1875,0 -0.1875,0.46875 -0.1875,0.5 0,0.1875 0.0625,0.34375 0.078125,0.375 -1.078125,0.3125 -1.75,1.109375 -1.75,1.875 0,0.359375 0.1875,0.78125 0.65625,1.046875 z m 1.625,-2.859375 C 3.3125,-5.953125 3.515625,-5.953125 3.625,-5.953125 c 0.34375,0 0.375,0.015625 0.5625,0.0625 C 4.109375,-5.859375 4,-5.8125 3.5625,-5.8125 c -0.1875,0 -0.296875,0 -0.40625,-0.09375 z M 2.375,-3.1875 c 0.234375,-0.046875 0.453125,-0.046875 0.5625,-0.046875 0.359375,0 0.390625,0 0.578125,0.046875 -0.09375,0.046875 -0.1875,0.09375 -0.640625,0.09375 -0.234375,0 -0.328125,0 -0.5,-0.09375 z m 0,0"
           id="path2255" />
      </symbol>
      <symbol
         overflow="visible"
         id="symbol3064">
        <path
           style="stroke:none"
           d=""
           id="path8780" />
      </symbol>
      <symbol
         overflow="visible"
         id="symbol7710">
        <path
           style="stroke:none"
           d="m 4.078125,-2.296875 h 2.78125 C 7,-2.296875 7.1875,-2.296875 7.1875,-2.5 7.1875,-2.6875 7,-2.6875 6.859375,-2.6875 h -2.78125 v -2.796875 c 0,-0.140625 0,-0.328125 -0.203125,-0.328125 -0.203125,0 -0.203125,0.1875 -0.203125,0.328125 V -2.6875 h -2.78125 c -0.140625,0 -0.328125,0 -0.328125,0.1875 0,0.203125 0.1875,0.203125 0.328125,0.203125 h 2.78125 V 0.5 c 0,0.140625 0,0.328125 0.203125,0.328125 0.203125,0 0.203125,-0.1875 0.203125,-0.328125 z m 0,0"
           id="path2616" />
      </symbol>
    </g>
    <g
       id="g8665">
      <symbol
         overflow="visible"
         id="symbol4400">
        <path
           style="stroke:none"
           d=""
           id="path2998" />
      </symbol>
      <symbol
         overflow="visible"
         id="symbol956">
        <path
           style="stroke:none"
           d="m 5.359375,-5.9375 c -0.140625,0.140625 -0.46875,0.421875 -0.46875,0.59375 0,0.09375 0.09375,0.203125 0.1875,0.203125 0.09375,0 0.140625,-0.078125 0.203125,-0.140625 C 5.390625,-5.421875 5.625,-5.703125 6.0625,-5.921875 6.125,-5.96875 6.234375,-6.015625 6.234375,-6.125 6.234375,-6.234375 6.15625,-6.28125 6.09375,-6.328125 5.875,-6.484375 5.765625,-6.65625 5.6875,-6.890625 5.65625,-6.984375 5.625,-7.125 5.484375,-7.125 c -0.140625,0 -0.203125,0.140625 -0.203125,0.21875 0,0.046875 0.078125,0.359375 0.234375,0.578125 H 2.15625 c -0.15625,0 -0.34375,0 -0.34375,0.203125 0,0.1875 0.1875,0.1875 0.34375,0.1875 z m 0,0"
           id="path4732" />
      </symbol>
      <symbol
         overflow="visible"
         id="symbol7997">
        <path
           style="stroke:none"
           d="m 3.015625,-3.234375 h 0.96875 c 0.75,0 0.828125,0.15625 0.828125,0.4375 0,0.078125 0,0.1875 -0.0625,0.5 C 4.71875,-2.25 4.71875,-2.21875 4.71875,-2.1875 c 0,0.078125 0.0625,0.109375 0.109375,0.109375 0.109375,0 0.109375,-0.03125 0.15625,-0.203125 L 5.53125,-4.453125 C 5.5625,-4.5625 5.5625,-4.578125 5.5625,-4.609375 5.5625,-4.625 5.546875,-4.71875 5.4375,-4.71875 5.34375,-4.71875 5.328125,-4.671875 5.296875,-4.5 5.078125,-3.734375 4.859375,-3.546875 4,-3.546875 H 3.09375 l 0.640625,-2.53125 C 3.828125,-6.4375 3.84375,-6.46875 4.28125,-6.46875 h 1.3125 c 1.21875,0 1.453125,0.328125 1.453125,1.09375 0,0.234375 0,0.265625 -0.03125,0.546875 C 7,-4.703125 7,-4.6875 7,-4.65625 c 0,0.046875 0.03125,0.125 0.125,0.125 0.109375,0 0.109375,-0.0625 0.125,-0.25 L 7.453125,-6.515625 C 7.484375,-6.78125 7.4375,-6.78125 7.1875,-6.78125 H 2.296875 c -0.1875,0 -0.296875,0 -0.296875,0.203125 0,0.109375 0.09375,0.109375 0.28125,0.109375 0.375,0 0.65625,0 0.65625,0.171875 0,0.046875 0,0.0625 -0.0625,0.25 L 1.5625,-0.78125 c -0.09375,0.390625 -0.109375,0.46875 -0.90625,0.46875 -0.171875,0 -0.28125,0 -0.28125,0.1875 C 0.375,0 0.5,0 0.53125,0 0.8125,0 1.5625,-0.03125 1.84375,-0.03125 2.171875,-0.03125 3,0 3.328125,0 3.421875,0 3.53125,0 3.53125,-0.1875 3.53125,-0.265625 3.484375,-0.296875 3.484375,-0.296875 3.453125,-0.3125 3.421875,-0.3125 3.203125,-0.3125 c -0.21875,0 -0.265625,0 -0.515625,-0.015625 -0.296875,-0.03125 -0.328125,-0.078125 -0.328125,-0.203125 0,-0.015625 0,-0.078125 0.046875,-0.21875 z m 0,0"
           id="path56" />
      </symbol>
      <symbol
         overflow="visible"
         id="symbol9643">
        <path
           style="stroke:none"
           d=""
           id="path7526" />
      </symbol>
      <symbol
         overflow="visible"
         id="symbol2984">
        <path
           style="stroke:none"
           d="m 3,-2.625 c -0.171875,0.046875 -0.296875,0.1875 -0.296875,0.328125 0,0.171875 0.140625,0.234375 0.234375,0.234375 0.078125,0 0.34375,-0.046875 0.34375,-0.40625 0,-0.453125 -0.5,-0.609375 -0.9375,-0.609375 -1.078125,0 -1.28125,0.8125 -1.28125,1.015625 0,0.265625 0.15625,0.4375 0.25,0.515625 0.171875,0.140625 0.296875,0.171875 0.78125,0.25 0.15625,0.03125 0.59375,0.109375 0.59375,0.453125 0,0.125 -0.078125,0.390625 -0.359375,0.5625 C 2.046875,-0.125 1.703125,-0.125 1.625,-0.125 1.34375,-0.125 0.953125,-0.1875 0.78125,-0.421875 1.015625,-0.453125 1.171875,-0.625 1.171875,-0.8125 c 0,-0.171875 -0.125,-0.265625 -0.265625,-0.265625 -0.203125,0 -0.40625,0.171875 -0.40625,0.46875 0,0.421875 0.4375,0.671875 1.109375,0.671875 1.296875,0 1.53125,-0.875 1.53125,-1.140625 0,-0.640625 -0.703125,-0.765625 -0.96875,-0.8125 -0.0625,-0.015625 -0.234375,-0.046875 -0.28125,-0.0625 -0.25,-0.046875 -0.375,-0.1875 -0.375,-0.34375 0,-0.15625 0.125,-0.34375 0.28125,-0.453125 0.1875,-0.109375 0.421875,-0.125 0.546875,-0.125 0.140625,0 0.5,0.015625 0.65625,0.25 z m 0,0"
           id="path4169" />
      </symbol>
    </g>
    <g
       id="g1330">
      <symbol
         overflow="visible"
         id="symbol7675">
        <path
           style="stroke:none"
           d=""
           id="path3446" />
      </symbol>
      <symbol
         overflow="visible"
         id="symbol7105">
        <path
           style="stroke:none"
           d="m 5.359375,-5.9375 c -0.140625,0.140625 -0.46875,0.421875 -0.46875,0.59375 0,0.09375 0.09375,0.203125 0.1875,0.203125 0.09375,0 0.140625,-0.078125 0.203125,-0.140625 C 5.390625,-5.421875 5.625,-5.703125 6.0625,-5.921875 6.125,-5.96875 6.234375,-6.015625 6.234375,-6.125 6.234375,-6.234375 6.15625,-6.28125 6.09375,-6.328125 5.875,-6.484375 5.765625,-6.65625 5.6875,-6.890625 5.65625,-6.984375 5.625,-7.125 5.484375,-7.125 c -0.140625,0 -0.203125,0.140625 -0.203125,0.21875 0,0.046875 0.078125,0.359375 0.234375,0.578125 H 2.15625 c -0.15625,0 -0.34375,0 -0.34375,0.203125 0,0.1875 0.1875,0.1875 0.34375,0.1875 z m 0,0"
           id="path3980" />
      </symbol>
      <symbol
         overflow="visible"
         id="symbol2512">
        <path
           style="stroke:none"
           d="m 3.015625,-3.234375 h 0.96875 c 0.75,0 0.828125,0.15625 0.828125,0.4375 0,0.078125 0,0.1875 -0.0625,0.5 C 4.71875,-2.25 4.71875,-2.21875 4.71875,-2.1875 c 0,0.078125 0.0625,0.109375 0.109375,0.109375 0.109375,0 0.109375,-0.03125 0.15625,-0.203125 L 5.53125,-4.453125 C 5.5625,-4.5625 5.5625,-4.578125 5.5625,-4.609375 5.5625,-4.625 5.546875,-4.71875 5.4375,-4.71875 5.34375,-4.71875 5.328125,-4.671875 5.296875,-4.5 5.078125,-3.734375 4.859375,-3.546875 4,-3.546875 H 3.09375 l 0.640625,-2.53125 C 3.828125,-6.4375 3.84375,-6.46875 4.28125,-6.46875 h 1.3125 c 1.21875,0 1.453125,0.328125 1.453125,1.09375 0,0.234375 0,0.265625 -0.03125,0.546875 C 7,-4.703125 7,-4.6875 7,-4.65625 c 0,0.046875 0.03125,0.125 0.125,0.125 0.109375,0 0.109375,-0.0625 0.125,-0.25 L 7.453125,-6.515625 C 7.484375,-6.78125 7.4375,-6.78125 7.1875,-6.78125 H 2.296875 c -0.1875,0 -0.296875,0 -0.296875,0.203125 0,0.109375 0.09375,0.109375 0.28125,0.109375 0.375,0 0.65625,0 0.65625,0.171875 0,0.046875 0,0.0625 -0.0625,0.25 L 1.5625,-0.78125 c -0.09375,0.390625 -0.109375,0.46875 -0.90625,0.46875 -0.171875,0 -0.28125,0 -0.28125,0.1875 C 0.375,0 0.5,0 0.53125,0 0.8125,0 1.5625,-0.03125 1.84375,-0.03125 2.171875,-0.03125 3,0 3.328125,0 3.421875,0 3.53125,0 3.53125,-0.1875 3.53125,-0.265625 3.484375,-0.296875 3.484375,-0.296875 3.453125,-0.3125 3.421875,-0.3125 3.203125,-0.3125 c -0.21875,0 -0.265625,0 -0.515625,-0.015625 -0.296875,-0.03125 -0.328125,-0.078125 -0.328125,-0.203125 0,-0.015625 0,-0.078125 0.046875,-0.21875 z m 0,0"
           id="path5936" />
      </symbol>
      <symbol
         overflow="visible"
         id="symbol825">
        <path
           style="stroke:none"
           d=""
           id="path1650" />
      </symbol>
      <symbol
         overflow="visible"
         id="symbol9734">
        <path
           style="stroke:none"
           d="m 3.703125,-2.578125 c 0.03125,-0.09375 0.03125,-0.125 0.03125,-0.140625 0,-0.15625 -0.125,-0.21875 -0.234375,-0.21875 -0.15625,0 -0.296875,0.125 -0.328125,0.265625 -0.109375,-0.1875 -0.34375,-0.40625 -0.71875,-0.40625 -0.859375,0 -1.78125,0.9375 -1.78125,1.9375 0,0.71875 0.484375,1.140625 1.0625,1.140625 0.328125,0 0.625,-0.15625 0.875,-0.375 L 2.453125,0.25 C 2.375,0.546875 2.328125,0.734375 2.0625,0.96875 c -0.3125,0.25 -0.609375,0.25 -0.78125,0.25 -0.3125,0 -0.40625,-0.015625 -0.53125,-0.046875 0.171875,-0.078125 0.21875,-0.25 0.21875,-0.34375 0,-0.171875 -0.125,-0.25 -0.265625,-0.25 C 0.5,0.578125 0.296875,0.734375 0.296875,1 c 0,0.421875 0.609375,0.421875 1,0.421875 1.09375,0 1.546875,-0.5625 1.65625,-0.953125 z M 2.75,-0.921875 c -0.03125,0.09375 -0.03125,0.109375 -0.15625,0.25 C 2.359375,-0.375 2.015625,-0.1875 1.75,-0.1875 c -0.34375,0 -0.515625,-0.3125 -0.515625,-0.671875 0,-0.296875 0.1875,-1.078125 0.375,-1.390625 0.28125,-0.484375 0.609375,-0.625 0.84375,-0.625 0.5,0 0.625,0.515625 0.625,0.59375 0,0.015625 0,0.015625 -0.015625,0.09375 z m 0,0"
           id="path9566" />
      </symbol>
    </g>
    <marker
       style="overflow:visible"
       id="Arrow2Lend-3"
       refX="0"
       refY="0"
       orient="auto"
       inkscape:stockid="Arrow2Lend"
       inkscape:isstock="true">
      <path
         transform="matrix(-1.1,0,0,-1.1,-1.1,0)"
         d="M 8.7185878,4.0337352 -2.2072895,0.01601326 8.7185884,-4.0017078 c -1.7454984,2.3720609 -1.7354408,5.6174519 -6e-7,8.035443 z"
         style="fill:context-stroke;fill-rule:evenodd;stroke:context-stroke;stroke-width:0.625;stroke-linejoin:round"
         id="path10876-7" />
    </marker>
    <inkscape:path-effect
       effect="bspline"
       id="path-effect12106-5"
       is_visible="true"
       lpeversion="1"
       weight="33.333333"
       steps="2"
       helper_size="0"
       apply_no_weight="true"
       apply_with_weight="true"
       only_selected="false" />
  </defs>
  <g
     inkscape:label="Ebene 1"
     inkscape:groupmode="layer"
     id="layer1"
     transform="translate(9.4075594,-14.617369)">
    <path
       style="fill:#ffffff;fill-opacity:1;stroke:none;stroke-width:0.761;stroke-linecap:butt;stroke-miterlimit:4;stroke-dasharray:none;stroke-dashoffset:0;stroke-opacity:1"
       id="rect13077"
       width="191.59935"
       height="196.13589"
       x="-9.4075594"
       y="14.617369"
       inkscape:path-effect="#path-effect13591"
       d="M 5.4091076,14.617369 H 167.37512 a 14.816667,14.816667 45 0 1 14.81667,14.816667 V 195.9366 a 14.816667,14.816667 135 0 1 -14.81667,14.81666 H 5.4091076 A 14.816667,14.816667 45 0 1 -9.4075594,195.9366 V 29.434036 A 14.816667,14.816667 135 0 1 5.4091076,14.617369 Z"
       sodipodi:type="rect" />
    <path
       style="fill:none;stroke:#838383;stroke-width:2.265;stroke-linecap:butt;stroke-linejoin:miter;stroke-miterlimit:4;stroke-dasharray:none;stroke-opacity:1"
       d="m 101.72821,89.00748 c -1.41489,-1.874525 -3.441995,-3.279053 -5.694082,-3.945289 -2.252088,-0.666235 -4.717067,-0.590599 -6.92407,0.21246 -1.124161,0.409047 -2.195389,1.012908 -3.01873,1.880759 -1.332754,1.404803 -1.911685,3.420028 -1.805653,5.353538 0.106031,1.933511 0.845875,3.790342 1.858053,5.44116 1.572106,2.564032 3.831595,4.709602 6.49653,6.103842 1.483628,0.77621 3.154724,1.32855 4.816534,1.12352 0.830905,-0.10251 1.644639,-0.39886 2.312808,-0.9033 0.66817,-0.50444 1.18394,-1.22249 1.39312,-2.03314 0.26177,-1.01448 0.0386,-2.08981 -0.27725,-3.08879 -0.67893,-2.147645 -1.789099,-4.157995 -3.245162,-5.876483"
       id="path4530"
       inkscape:path-effect="#path-effect4532"
       inkscape:original-d="m 101.72821,89.00748 c -4.205782,-1.244012 -8.411832,-2.48829 -12.618152,-3.732829 -4.20631,-1.244541 -2.01222,1.254104 -3.01873,1.880759 -1.00651,0.626655 0.0352,7.19673 0.0524,10.794698 0.0172,3.597972 4.33129,4.069492 6.49653,6.103842 2.16525,2.03435 5.68191,-1.20835 8.522462,-1.81292 2.84056,-0.60457 -0.18457,-2.05893 -0.27725,-3.08879 -0.0927,-1.029861 -2.040332,-4.093292 -3.245162,-5.876483"
       sodipodi:nodetypes="cssssssc" />
    <path
       style="fill:none;stroke:#838383;stroke-width:2.265;stroke-linecap:butt;stroke-linejoin:miter;stroke-miterlimit:4;stroke-dasharray:none;stroke-opacity:1"
       d="m 97.747908,93.427873 c -1.400346,-1.923535 -3.437926,-3.374825 -5.713524,-4.069524 -2.275598,-0.6947 -4.776326,-0.628875 -7.012226,0.184579 -1.124183,0.408994 -2.195403,1.01289 -3.01873,1.880759 -1.332723,1.404824 -1.911642,3.420036 -1.805617,5.35354 0.106025,1.933505 0.845849,3.790333 1.858017,5.441153 1.572095,2.56404 3.831593,4.7096 6.49653,6.10384 1.483627,0.7762 3.154721,1.32855 4.81653,1.12353 0.830905,-0.10251 1.644639,-0.39886 2.312809,-0.9033 0.66817,-0.50444 1.183945,-1.22249 1.393121,-2.03314 0.261771,-1.01448 0.03855,-2.08981 -0.27725,-3.08879 -0.678927,-2.14765 -1.789098,-4.157996 -3.24516,-5.876486"
       id="path4530-1"
       inkscape:path-effect="#path-effect4532-6"
       inkscape:original-d="m 97.747908,93.427873 c -4.20578,-1.244012 -8.51943,-2.640406 -12.72575,-3.884945 -4.20631,-1.244541 -2.01222,1.254104 -3.01873,1.880759 -1.00651,0.626655 0.0352,7.19673 0.0524,10.794693 0.0172,3.59797 4.33129,4.06949 6.49653,6.10384 2.16525,2.03435 5.68191,-1.20834 8.52246,-1.81291 2.84056,-0.60457 -0.18457,-2.05893 -0.27725,-3.08879 -0.0927,-1.02986 -2.04033,-4.093295 -3.24516,-5.876486"
       sodipodi:nodetypes="cssssssc" />
    <path
       style="fill:none;stroke:#838383;stroke-width:2.265;stroke-linecap:butt;stroke-linejoin:miter;stroke-miterlimit:4;stroke-dasharray:none;stroke-opacity:1"
       d="m 93.842728,97.919421 c -1.382266,-1.9972 -3.439291,-3.518398 -5.753784,-4.255002 -2.314494,-0.736605 -4.872352,-0.684128 -7.154686,0.146786 -1.12408,0.409236 -2.195335,1.012974 -3.01873,1.880759 -1.332866,1.404723 -1.911838,3.419992 -1.805784,5.353526 0.106055,1.93352 0.845968,3.79035 1.858184,5.44117 1.572147,2.56401 3.831605,4.70959 6.49653,6.10384 1.483624,0.77621 3.154721,1.32856 4.816531,1.12354 0.830905,-0.10252 1.644639,-0.39887 2.312809,-0.90331 0.668169,-0.50444 1.183944,-1.22249 1.39312,-2.03314 0.261772,-1.01448 0.03856,-2.08982 -0.27725,-3.0888 -0.678926,-2.14764 -1.789098,-4.15799 -3.24516,-5.87648"
       id="path4530-1-7"
       inkscape:path-effect="#path-effect4532-6-8"
       inkscape:original-d="m 93.842728,97.919421 c -4.20578,-1.244012 -8.70215,-2.863677 -12.90847,-4.108216 -4.20631,-1.244541 -2.01222,1.254104 -3.01873,1.880759 -1.00651,0.626655 0.0352,7.196726 0.0524,10.794696 0.0172,3.59797 4.33129,4.06949 6.49653,6.10384 2.16525,2.03435 5.68191,-1.20834 8.52246,-1.81291 2.84056,-0.60457 -0.18457,-2.05893 -0.27725,-3.0888 -0.0927,-1.02986 -2.04033,-4.09329 -3.24516,-5.87648"
       sodipodi:nodetypes="cssssssc" />
    <path
       style="fill:none;stroke:#838383;stroke-width:2.265;stroke-linecap:butt;stroke-linejoin:miter;stroke-miterlimit:4;stroke-dasharray:none;stroke-opacity:1"
       d="m 89.464508,101.81231 c -1.415252,-1.874106 -3.442345,-3.278284 -5.694319,-3.944486 -2.251974,-0.666202 -4.716755,-0.590855 -6.923831,0.211658 -1.124287,0.408801 -2.195804,1.012466 -3.01873,1.880759 -1.331526,1.404929 -1.907299,3.420349 -1.80007,5.353039 0.10723,1.93269 0.845966,3.78826 1.85247,5.44166 1.5649,2.57069 3.815096,4.73736 6.49653,6.10384 1.478644,0.75353 3.142304,1.26948 4.788189,1.05674 0.822943,-0.10636 1.627891,-0.39846 2.296683,-0.88965 0.668792,-0.49119 1.195757,-1.18624 1.437588,-1.98001 0.307605,-1.00966 0.141219,-2.11982 -0.27725,-3.08879 -0.524377,-1.2142 -1.442872,-2.25446 -2.582787,-2.92518 -1.139916,-0.67071 -2.49533,-0.9684 -3.811393,-0.83709"
       id="path4530-1-7-2"
       inkscape:path-effect="#path-effect4532-6-8-9"
       inkscape:original-d="m 89.464508,101.81231 c -4.20578,-1.24401 -8.41183,-2.488289 -12.61815,-3.732828 -4.20631,-1.244541 -2.01222,1.254104 -3.01873,1.880759 -1.00651,0.626659 0.0352,7.196729 0.0524,10.794699 0.0172,3.59797 4.33129,4.06949 6.49653,6.10384 2.16525,2.03435 5.68191,-1.20835 8.52246,-1.81292 2.84056,-0.60457 -0.18457,-2.05893 -0.27725,-3.08879 -0.0927,-1.02986 -4.47369,-1.25056 -6.39418,-3.76227"
       sodipodi:nodetypes="cssssssc" />
    <path
       style="fill:none;stroke:#838383;stroke-width:2.14064;stroke-linecap:butt;stroke-linejoin:miter;stroke-miterlimit:4;stroke-dasharray:none;stroke-opacity:1"
       d="M 82.873108,107.83111 37.529616,152.39216"
       id="path7531"
       inkscape:path-effect="#path-effect7533"
       inkscape:original-d="m 82.873108,107.83111 c -14.89907,14.7327 -30.443923,29.82884 -45.343492,44.56105"
       sodipodi:nodetypes="cc" />
    <path
       style="fill:#585858;fill-opacity:1;stroke:none;stroke-width:1;stroke-linecap:butt;stroke-miterlimit:4;stroke-dasharray:none;stroke-dashoffset:0"
       id="path879"
       sodipodi:type="arc"
       sodipodi:cx="37.529613"
       sodipodi:cy="152.39217"
       sodipodi:rx="8.2419767"
       sodipodi:ry="8.2419767"
       sodipodi:start="6.2752615"
       sodipodi:end="6.2752092"
       sodipodi:arc-type="slice"
       d="m 45.771331,152.32686 a 8.2419767,8.2419767 0 0 1 -8.176303,8.30702 8.2419767,8.2419767 0 0 1 -8.307131,-8.17619 8.2419767,8.2419767 0 0 1 8.176086,-8.30724 8.2419767,8.2419767 0 0 1 8.307345,8.17598 l -8.241715,0.0657 z" />
    <path
       style="fill:none;stroke:#838383;stroke-width:2.265;stroke-linecap:butt;stroke-linejoin:miter;stroke-miterlimit:4;stroke-dasharray:none;stroke-opacity:1"
       d="M 149.53209,42.74045 100.88773,89.68612"
       id="path7531-2"
       inkscape:path-effect="#path-effect7533-0"
       inkscape:original-d="M 149.53209,42.74045 C 133.59773,58.163057 116.82262,74.26404 100.88773,89.68612"
       sodipodi:nodetypes="cc" />
    <path
       style="fill:none;stroke:#000000;stroke-width:0.665;stroke-linecap:butt;stroke-linejoin:miter;stroke-miterlimit:4;stroke-dasharray:3.99, 3.99;stroke-dashoffset:0;stroke-opacity:1"
       d="M 149.53209,42.74045 V 196.72476"
       id="path10466"
       inkscape:path-effect="#path-effect10468"
       inkscape:original-d="m 149.53209,42.74045 c 2.6e-4,61.28705 2.6e-4,92.69778 0,153.98431"
       sodipodi:nodetypes="cc" />
    <path
       style="fill:none;stroke:#000000;stroke-width:0.665;stroke-linecap:butt;stroke-linejoin:miter;stroke-miterlimit:4;stroke-dasharray:none;stroke-opacity:1"
       d="m 110.62659,80.658927 c 5.35333,5.778015 10.70629,11.555634 17.18799,14.715449 6.48171,3.159815 14.0916,3.701821 21.70136,4.243817"
       id="path10470"
       inkscape:path-effect="#path-effect10472"
       inkscape:original-d="m 110.62659,80.658927 c 5.35334,5.778004 10.7063,11.555625 16.05922,17.333217 7.61046,0.542292 15.22035,1.084297 22.83013,1.626049"
       sodipodi:nodetypes="ccc" />
    <g
       inkscape:label=""
       transform="matrix(2.3002965,0,0,2.3002965,-82.063437,-104.55762)"
       id="g10787">
      <g
         id="g51">
        <g
           style="fill:#000000;fill-opacity:1"
           id="g2215">
          <use
             xlink:href="#symbol5445"
             x="91.925003"
             y="81.962997"
             id="use3831"
             width="100%"
             height="100%" />
        </g>
      </g>
    </g>
    <path
       style="fill:none;stroke:#000000;stroke-width:0.665;stroke-linecap:butt;stroke-linejoin:miter;stroke-miterlimit:4;stroke-dasharray:none;stroke-opacity:1;marker-start:url(#Arrow2Lstart);marker-end:url(#Arrow2Lend)"
       d="M 14.561638,135.48165 C 54.454521,98.399941 94.347394,61.318242 134.24026,24.23655"
       id="path10851"
       inkscape:path-effect="#path-effect10853"
       inkscape:original-d="M 14.561638,135.48165 C 54.454776,98.400215 94.347648,61.318515 134.24026,24.23655" />
    <g
       inkscape:label=""
       transform="matrix(1.3551359,-1.319681,1.319681,1.3551359,-179.9894,98.472564)"
       id="g11429">
      <g
         id="g6859">
        <g
           style="fill:#000000;fill-opacity:1"
           id="g3951">
          <use
             xlink:href="#symbol9489"
             x="91.925003"
             y="81.962997"
             id="use7962"
             width="100%"
             height="100%" />
        </g>
        <g
           style="fill:#000000;fill-opacity:1"
           id="g249">
          <use
             xlink:href="#symbol7710"
             x="98.290001"
             y="81.962997"
             id="use732"
             width="100%"
             height="100%" />
        </g>
        <g
           style="fill:#000000;fill-opacity:1"
           id="g9017">
          <use
             xlink:href="#symbol8545"
             x="108.253"
             y="81.962997"
             id="use1338"
             width="100%"
             height="100%" />
        </g>
      </g>
    </g>
    <g
       inkscape:label=""
       transform="matrix(1.7325403,0,0,1.7325403,-99.548724,16.173788)"
       id="g11663"
       style="fill:#c83737;fill-opacity:1;stroke:#c83737;stroke-opacity:1">
      <g
         id="g1866"
         style="fill:#c83737;fill-opacity:1;stroke:#c83737;stroke-opacity:1">
        <g
           style="fill:#c83737;fill-opacity:1;stroke:#c83737;stroke-opacity:1"
           id="g7730">
          <use
             xlink:href="#symbol956"
             x="93.393997"
             y="79.445"
             id="use9638"
             width="100%"
             height="100%"
             style="fill:#c83737;fill-opacity:1;stroke:#c83737;stroke-opacity:1" />
        </g>
        <g
           style="fill:#c83737;fill-opacity:1;stroke:#c83737;stroke-opacity:1"
           id="g3022">
          <use
             xlink:href="#symbol7997"
             x="91.925003"
             y="81.962997"
             id="use9519"
             width="100%"
             height="100%"
             style="fill:#c83737;fill-opacity:1;stroke:#c83737;stroke-opacity:1" />
        </g>
        <g
           style="fill:#c83737;fill-opacity:1;stroke:#c83737;stroke-opacity:1"
           id="g9654">
          <use
             xlink:href="#symbol2984"
             x="98.332001"
             y="83.457001"
             id="use7637"
             width="100%"
             height="100%"
             style="fill:#c83737;fill-opacity:1;stroke:#c83737;stroke-opacity:1" />
        </g>
      </g>
    </g>
    <g
       inkscape:label=""
       transform="matrix(1.709008,0,0,1.709008,-142.72612,46.742118)"
       id="g11935"
       style="fill:#0088aa;fill-opacity:1">
      <g
         id="g1081"
         style="fill:#0088aa;fill-opacity:1">
        <g
           style="fill:#0088aa;fill-opacity:1"
           id="g9391">
          <use
             xlink:href="#symbol7105"
             x="93.393997"
             y="79.445"
             id="use2711"
             width="100%"
             height="100%"
             style="fill:#0088aa;fill-opacity:1" />
        </g>
        <g
           style="fill:#0088aa;fill-opacity:1"
           id="g8865">
          <use
             xlink:href="#symbol2512"
             x="91.925003"
             y="81.962997"
             id="use4063"
             width="100%"
             height="100%"
             style="fill:#0088aa;fill-opacity:1" />
        </g>
        <g
           style="fill:#0088aa;fill-opacity:1"
           id="g4938">
          <use
             xlink:href="#symbol9734"
             x="98.332001"
             y="83.457001"
             id="use5141"
             width="100%"
             height="100%"
             style="fill:#0088aa;fill-opacity:1" />
        </g>
      </g>
    </g>
    <path
       style="fill:#c83737;stroke:#c83737;stroke-width:0.765;stroke-linecap:butt;stroke-linejoin:miter;stroke-miterlimit:4;stroke-dasharray:none;stroke-opacity:1;marker-end:url(#Arrow2Lend)"
       d="m 37.529613,152.39216 c 3e-6,0 3e-6,0 3.667875,-3.66787 3.667872,-3.66788 11.003328,-11.00333 18.338923,-18.33893"
       id="path12104"
       inkscape:path-effect="#path-effect12106"
       inkscape:original-d="m 37.529613,152.39216 c 2.65e-4,2.7e-4 2.65e-4,2.7e-4 3e-6,0 7.336009,-7.33548 14.671463,-14.67094 22.006795,-22.0068" />
    <path
       style="fill:#0088aa;fill-opacity:1;stroke:#0088aa;stroke-width:0.765;stroke-linecap:butt;stroke-linejoin:miter;stroke-miterlimit:4;stroke-dasharray:none;stroke-opacity:1;marker-end:url(#Arrow2Lend-3)"
       d="m 37.529613,152.39217 c 3e-6,0 3e-6,0 0.07897,5.83105 0.07896,5.83104 0.236876,17.49241 0.394789,29.15374"
       id="path12104-9"
       inkscape:path-effect="#path-effect12106-5"
       inkscape:original-d="m 37.529613,152.39217 c 2.65e-4,2.7e-4 2.65e-4,2.7e-4 3e-6,0 0.158185,11.66209 0.316099,23.32346 0.473751,34.98479"
       sodipodi:nodetypes="ccc" />
  </g>
</svg>
